<svg width="113" height="30" viewBox="0 0 113 30" fill="none" xmlns="http://www.w3.org/2000/svg">
<path d="M15.8621 21.8104V14.6569L21.2335 9.05024C22.1021 8.14357 23.4872 9.30329 22.8276 10.3851L15.8621 21.8104Z" fill="white"/>
<path d="M15.8621 13.8793V8.67679L19.443 4.59923C20.0221 3.93983 20.9455 4.78327 20.5058 5.57002L15.8621 13.8793Z" fill="white"/>
<path d="M7.37988 0C11.4558 0 14.7606 3.28439 14.7607 7.33594V22.0088C14.7607 26.0604 11.4558 29.3447 7.37988 29.3447C3.3041 29.3445 8.71061e-05 26.0603 0 22.0088V7.33594C0.000147764 3.28451 3.30414 0.000207996 7.37988 0ZM7.33594 21.4141C6.13154 21.4142 5.15533 22.3903 5.15527 23.5947C5.15527 24.7992 6.13151 25.7752 7.33594 25.7754C8.54049 25.7754 9.51758 24.7993 9.51758 23.5947C9.51752 22.3902 8.54046 21.4141 7.33594 21.4141Z" fill="white"/>
<path d="M37.98 22C37.8333 22 37.7133 21.9533 37.62 21.86C37.5267 21.7667 37.48 21.6467 37.48 21.5V11.14H33.92C33.7733 11.14 33.6533 11.0933 33.56 11C33.4667 10.8933 33.42 10.7733 33.42 10.64V8.5C33.42 8.35333 33.4667 8.23333 33.56 8.14C33.6533 8.04667 33.7733 8 33.92 8H44.68C44.8267 8 44.9467 8.04667 45.04 8.14C45.1333 8.23333 45.18 8.35333 45.18 8.5V10.64C45.18 10.7733 45.1333 10.8933 45.04 11C44.9467 11.0933 44.8267 11.14 44.68 11.14H41.12V21.5C41.12 21.6467 41.0733 21.7667 40.98 21.86C40.8867 21.9533 40.7667 22 40.62 22H37.98ZM52.5028 22.2C51.2761 22.2 50.2095 22 49.3028 21.6C48.3961 21.2 47.6895 20.6 47.1828 19.8C46.6761 18.9867 46.3961 17.9733 46.3428 16.76C46.3295 16.1867 46.3228 15.6133 46.3228 15.04C46.3228 14.4667 46.3295 13.8867 46.3428 13.3C46.3961 12.1 46.6761 11.0933 47.1828 10.28C47.7028 9.45333 48.4161 8.83333 49.3228 8.42C50.2295 8.00667 51.2895 7.8 52.5028 7.8C53.7028 7.8 54.7561 8.00667 55.6628 8.42C56.5828 8.83333 57.3028 9.45333 57.8228 10.28C58.3428 11.0933 58.6228 12.1 58.6628 13.3C58.6895 13.8867 58.7028 14.4667 58.7028 15.04C58.7028 15.6133 58.6895 16.1867 58.6628 16.76C58.6095 17.9733 58.3295 18.9867 57.8228 19.8C57.3161 20.6 56.6095 21.2 55.7028 21.6C54.7961 22 53.7295 22.2 52.5028 22.2ZM52.5028 19.32C53.2095 19.32 53.7828 19.1067 54.2228 18.68C54.6761 18.2533 54.9161 17.5733 54.9428 16.64C54.9695 16.0533 54.9828 15.5 54.9828 14.98C54.9828 14.46 54.9695 13.92 54.9428 13.36C54.9161 12.7333 54.7961 12.2267 54.5828 11.84C54.3828 11.44 54.1028 11.1467 53.7428 10.96C53.3828 10.7733 52.9695 10.68 52.5028 10.68C52.0495 10.68 51.6428 10.7733 51.2828 10.96C50.9228 11.1467 50.6361 11.44 50.4228 11.84C50.2095 12.2267 50.0895 12.7333 50.0628 13.36C50.0495 13.92 50.0428 14.46 50.0428 14.98C50.0428 15.5 50.0495 16.0533 50.0628 16.64C50.1028 17.5733 50.3428 18.2533 50.7828 18.68C51.2228 19.1067 51.7961 19.32 52.5028 19.32ZM66.7411 22.2C65.5144 22.2 64.4478 22 63.5411 21.6C62.6344 21.2 61.9278 20.6 61.4211 19.8C60.9144 18.9867 60.6344 17.9733 60.5811 16.76C60.5678 16.1867 60.5611 15.6133 60.5611 15.04C60.5611 14.4667 60.5678 13.8867 60.5811 13.3C60.6344 12.1 60.9144 11.0933 61.4211 10.28C61.9411 9.45333 62.6544 8.83333 63.5611 8.42C64.4678 8.00667 65.5278 7.8 66.7411 7.8C67.9411 7.8 68.9944 8.00667 69.9011 8.42C70.8211 8.83333 71.5411 9.45333 72.0611 10.28C72.5811 11.0933 72.8611 12.1 72.9011 13.3C72.9278 13.8867 72.9411 14.4667 72.9411 15.04C72.9411 15.6133 72.9278 16.1867 72.9011 16.76C72.8478 17.9733 72.5678 18.9867 72.0611 19.8C71.5544 20.6 70.8478 21.2 69.9411 21.6C69.0344 22 67.9678 22.2 66.7411 22.2ZM66.7411 19.32C67.4478 19.32 68.0211 19.1067 68.4611 18.68C68.9144 18.2533 69.1544 17.5733 69.1811 16.64C69.2078 16.0533 69.2211 15.5 69.2211 14.98C69.2211 14.46 69.2078 13.92 69.1811 13.36C69.1544 12.7333 69.0344 12.2267 68.8211 11.84C68.6211 11.44 68.3411 11.1467 67.9811 10.96C67.6211 10.7733 67.2078 10.68 66.7411 10.68C66.2878 10.68 65.8811 10.7733 65.5211 10.96C65.1611 11.1467 64.8744 11.44 64.6611 11.84C64.4478 12.2267 64.3278 12.7333 64.3011 13.36C64.2878 13.92 64.2811 14.46 64.2811 14.98C64.2811 15.5 64.2878 16.0533 64.3011 16.64C64.3411 17.5733 64.5811 18.2533 65.0211 18.68C65.4611 19.1067 66.0344 19.32 66.7411 19.32ZM75.7594 22C75.6127 22 75.4927 21.9533 75.3994 21.86C75.306 21.7667 75.2594 21.6467 75.2594 21.5V8.5C75.2594 8.35333 75.306 8.23333 75.3994 8.14C75.4927 8.04667 75.6127 8 75.7594 8H78.3994C78.5327 8 78.646 8.04667 78.7394 8.14C78.846 8.23333 78.8994 8.35333 78.8994 8.5V18.98H84.9394C85.086 18.98 85.206 19.0333 85.2994 19.14C85.406 19.2333 85.4594 19.3533 85.4594 19.5V21.5C85.4594 21.6467 85.406 21.7667 85.2994 21.86C85.206 21.9533 85.086 22 84.9394 22H75.7594ZM92.413 22.2C91.0796 22.2 89.973 22.0133 89.093 21.64C88.213 21.2533 87.5463 20.7533 87.093 20.14C86.6396 19.5267 86.3996 18.8733 86.373 18.18C86.373 18.0733 86.413 17.98 86.493 17.9C86.5863 17.8067 86.693 17.76 86.813 17.76H89.333C89.5196 17.76 89.6596 17.7933 89.753 17.86C89.8596 17.9267 89.953 18.0133 90.033 18.12C90.1396 18.32 90.2863 18.5133 90.473 18.7C90.673 18.8867 90.9263 19.04 91.233 19.16C91.553 19.2667 91.9463 19.32 92.413 19.32C93.1863 19.32 93.7663 19.2 94.153 18.96C94.553 18.72 94.753 18.3933 94.753 17.98C94.753 17.6867 94.6463 17.4467 94.433 17.26C94.2196 17.06 93.873 16.8867 93.393 16.74C92.9263 16.58 92.2996 16.42 91.513 16.26C90.4996 16.0467 89.633 15.7733 88.913 15.44C88.2063 15.0933 87.6663 14.6467 87.293 14.1C86.9196 13.54 86.733 12.8467 86.733 12.02C86.733 11.2067 86.9596 10.48 87.413 9.84C87.8796 9.2 88.5263 8.7 89.353 8.34C90.1796 7.98 91.1596 7.8 92.293 7.8C93.213 7.8 94.0196 7.92 94.713 8.16C95.4196 8.4 96.013 8.72 96.493 9.12C96.973 9.52 97.333 9.94667 97.573 10.4C97.8263 10.84 97.9596 11.2733 97.973 11.7C97.973 11.8067 97.933 11.9067 97.853 12C97.773 12.08 97.673 12.12 97.553 12.12H94.913C94.7663 12.12 94.6396 12.0933 94.533 12.04C94.4263 11.9867 94.333 11.9 94.253 11.78C94.173 11.4867 93.9596 11.2333 93.613 11.02C93.2796 10.7933 92.8396 10.68 92.293 10.68C91.7063 10.68 91.2463 10.7867 90.913 11C90.593 11.2 90.433 11.5133 90.433 11.94C90.433 12.2067 90.5196 12.44 90.693 12.64C90.8796 12.84 91.1796 13.0133 91.593 13.16C92.0196 13.3067 92.5996 13.46 93.333 13.62C94.5463 13.8467 95.5263 14.1333 96.273 14.48C97.0196 14.8133 97.5663 15.2533 97.913 15.8C98.2596 16.3333 98.433 17.0067 98.433 17.82C98.433 18.7267 98.173 19.5133 97.653 20.18C97.1463 20.8333 96.4396 21.3333 95.533 21.68C94.6263 22.0267 93.5863 22.2 92.413 22.2ZM103.969 22C103.835 22 103.715 21.9533 103.609 21.86C103.515 21.7667 103.469 21.6467 103.469 21.5V17.2L98.8288 8.64C98.8154 8.6 98.8021 8.56667 98.7888 8.54C98.7754 8.5 98.7688 8.46 98.7688 8.42C98.7688 8.31333 98.8088 8.22 98.8888 8.14C98.9821 8.04667 99.0888 8 99.2088 8H101.709C101.909 8 102.062 8.05333 102.169 8.16C102.289 8.25333 102.362 8.34 102.389 8.42L105.269 13.58L108.149 8.42C108.189 8.34 108.262 8.25333 108.369 8.16C108.489 8.05333 108.649 8 108.849 8H111.349C111.469 8 111.569 8.04667 111.649 8.14C111.729 8.22 111.769 8.31333 111.769 8.42C111.769 8.46 111.762 8.5 111.749 8.54C111.749 8.56667 111.742 8.6 111.729 8.64L107.069 17.2V21.5C107.069 21.6467 107.022 21.7667 106.929 21.86C106.835 21.9533 106.715 22 106.569 22H103.969Z" fill="white"/>
</svg>
