<svg width="58" height="74" viewBox="0 0 58 74" fill="none" xmlns="http://www.w3.org/2000/svg">
<path d="M40 55V36.9608L53.5453 22.8223C55.7357 20.5359 59.2285 23.4604 57.5653 26.1884L40 55Z" fill="white"/>
<path d="M40 35V21.8806L49.0302 11.598C50.4905 9.93522 52.819 12.0621 51.7102 14.0461L40 35Z" fill="white"/>
<path d="M18.6113 0C28.8899 0.00011681 37.2227 8.2828 37.2227 18.5V55.5C37.2227 65.7172 28.8899 73.9999 18.6113 74C8.3327 74 0 65.7173 0 55.5V18.5C0 8.28273 8.3327 0 18.6113 0ZM18.5 54C15.4624 54 13 56.4624 13 59.5C13 62.5376 15.4624 65 18.5 65C21.5376 65 24 62.5376 24 59.5C24 56.4624 21.5376 54 18.5 54Z" fill="white"/>
</svg>
